<?xml version="1.0" standalone="no"?><!DOCTYPE svg PUBLIC "-//W3C//DTD SVG 1.1//EN" "http://www.w3.org/Graphics/SVG/1.1/DTD/svg11.dtd"><svg t="1704826534789" class="icon" viewBox="0 0 1024 1024" version="1.1" xmlns="http://www.w3.org/2000/svg" p-id="6053" width="24" height="24" xmlns:xlink="http://www.w3.org/1999/xlink"><path d="M213.290667 85.930667a128 128 0 0 0-128 128c0 54.101333 34.432 101.674667 85.504 120.874666l-0.64 356.010667a128.64 128.64 0 0 0-84.864 120.448 128 128 0 0 0 128 128c54.101333 0 100.906667-33.706667 120.192-84.821333l355.541333-0.853334c20.736 53.077333 67.498667 85.674667 121.6 85.674667a128 128 0 0 0 128-128c0-54.101333-35.285333-102.314667-85.418667-120.234667l-0.256-355.797333c52.437333-20.608 85.674667-67.2 85.674667-121.301333a128 128 0 0 0-128-128c-54.101333 0-103.68 35.413333-120.32 84.949333l-356.522667 0.213333c-21.504-53.546667-66.389333-85.162667-120.490666-85.162666z m0 85.333333a42.666667 42.666667 0 1 1 0 85.333333 42.666667 42.666667 0 0 1 0-85.333333z m597.333333 0a42.666667 42.666667 0 1 1 0 85.333333 42.666667 42.666667 0 0 1 0-85.333333zM333.994667 256.085333l356.778666 1.066667a125.013333 125.013333 0 0 0 76.672 77.226667l0.981334 356.693333c-35.285333 10.538667-67.925333 42.538667-78.762667 77.781333l-356.224-0.085333c-9.472-32-41.642667-66.517333-78.037333-78.336l0.810666-355.968c33.792-11.178667 64.128-40.746667 77.781334-78.378667zM213.290667 768.597333a42.666667 42.666667 0 1 1 0 85.333334 42.666667 42.666667 0 0 1 0-85.333334z m597.333333 0a42.666667 42.666667 0 1 1 0 85.333334 42.666667 42.666667 0 0 1 0-85.333334z" fill="#ffffff" p-id="6054"></path></svg>