<?xml version="1.0" standalone="no"?><!DOCTYPE svg PUBLIC "-//W3C//DTD SVG 1.1//EN" "http://www.w3.org/Graphics/SVG/1.1/DTD/svg11.dtd"><svg t="1700949993171" class="icon" viewBox="0 0 1024 1024" version="1.1" xmlns="http://www.w3.org/2000/svg" p-id="1512" width="48" height="48" xmlns:xlink="http://www.w3.org/1999/xlink"><path d="M1001.984 758.016h-113.984v-113.984a8 8 0 0 0-8-8.064h-60.032a8 8 0 0 0-7.936 8.064v113.92h-114.048a8 8 0 0 0-8 8.064v59.968c0 4.48 3.584 8 8 8h113.984v113.984c0 4.48 3.584 8.064 8.064 8.064h59.968a8 8 0 0 0 8-8.064v-113.92h113.984a8 8 0 0 0 8-8.064v-59.968a8 8 0 0 0-8-8z m-396.48 0H190.976V217.984h621.056v334.016c0 4.416 3.52 8 7.936 8h60.032a8 8 0 0 0 8-8V174.016a32 32 0 0 0-32-32H147.008a32 32 0 0 0-32 32v627.968a32 32 0 0 0 32 32H605.44a8 8 0 0 0 8-8v-59.968a8 8 0 0 0-8-8z" fill="#ffffff" p-id="1513"></path></svg>