<?xml version="1.0" standalone="no"?><!DOCTYPE svg PUBLIC "-//W3C//DTD SVG 1.1//EN" "http://www.w3.org/Graphics/SVG/1.1/DTD/svg11.dtd"><svg t="1701210867800" class="icon" viewBox="0 0 1024 1024" version="1.1" xmlns="http://www.w3.org/2000/svg" p-id="5283" width="24" height="24" xmlns:xlink="http://www.w3.org/1999/xlink"><path d="M292.352 872.9088c40.2944 24.576 84.3776 42.1888 130.7648 52.1216l-16.0768 75.1104a496.3328 496.3328 0 0 1-154.624-61.6448l39.936-65.5872z m-177.152-215.7568a421.7856 421.7856 0 0 0 69.7856 122.2656l-59.392 48.64A498.5856 498.5856 0 0 1 43.008 683.52l72.1408-26.368zM409.6 246.016a51.2 51.2 0 0 1 27.136 7.7312l343.7056 214.8352a51.2 51.2 0 0 1 0 86.8352L436.736 770.2528A51.2 51.2 0 0 1 358.4 726.8352V297.1648a51.2 51.2 0 0 1 51.2-51.2zM37.7856 355.5328l72.96 24.064a420.9152 420.9152 0 0 0-20.6848 112.9984l-0.4608 23.7568 0.0512 2.56-76.8 1.2288-0.0512-8.0384c0-53.8624 8.4992-106.496 24.9856-156.5696z m199.5264-260.5056l42.3424 64.1024a424.96 424.96 0 0 0-103.0656 96.0512l-60.928-46.7456a501.76 501.76 0 0 1 121.6512-113.408z m598.9888 146.2784l-3.4816-4.096-1.8432-2.1504-1.1264-1.3312-1.792-1.9968-0.5632-0.6144-1.28-1.4336-11.6736-12.4928-12.9536-12.7488-5.376-4.9664-4.096-3.6864-5.4272-4.7104-0.6656-0.6144 4.7616 4.1472a424.8576 424.8576 0 0 0-16.5888-13.824l-8.8576-6.8608a421.3248 421.3248 0 0 0-116.1216-61.5936l-14.08-4.608-3.072-0.8704-6.144-1.792-0.9728-0.256-1.2288-0.3072-3.9424-1.0752 1.5872 0.4096-3.6864-0.9728-5.0176-1.2288-4.9664-1.1776-2.1504-0.512 0.3584 0.0512 1.792 0.4608 3.7888 0.8704-5.12-1.2288-0.4608-0.1024-0.512-0.1024-2.2016-0.512 1.6384 0.4096 0.5632 0.1024 0.1536 0.0512-0.7168-0.1536-7.5776-1.6384-6.7584-1.3312-4.1472-0.768-4.608-0.768 1.9456 0.3072a422.7072 422.7072 0 0 0-34.4064-4.4032l-8.3456-0.6656-7.8848-0.4608-1.792-0.1024-8.96-0.3072A431.2064 431.2064 0 0 0 512 89.6V12.8l19.2512 0.3584 3.4304 0.1536c12.288 0.512 24.4736 1.536 36.5056 2.9696l7.1168 0.8704c12.288 1.6384 24.3712 3.6864 36.352 6.1952l2.5088 0.512c19.968 4.3008 39.424 9.728 58.368 16.384l0.5632 0.1536 8.704 3.1232a499.2 499.2 0 0 1 196.7104 132.864l2.048 2.2528a501.6064 501.6064 0 0 1 37.5296 47.1552l1.536 2.2528a496.9472 496.9472 0 0 1 70.144 149.0944l5.2224 20.3776c5.0688 21.504 8.6528 43.1104 10.8032 65.1776l0.3584 3.584a503.808 503.808 0 0 1 1.024 77.824l-0.4096 5.888a471.7056 471.7056 0 0 1-1.3312 14.6944 496.128 496.128 0 0 1-74.496 214.2208l-1.6384 2.56a499.968 499.968 0 0 1-64.512 80.7424 498.944 498.944 0 0 1-214.4256 128.7168l-2.4064 0.6656a477.44 477.44 0 0 1-18.7904 5.0688l-1.792 0.4096c-5.888 1.4336-11.776 2.7648-17.7152 3.9936l-2.2528 0.4608a481.792 481.792 0 0 1-22.528 3.9424c-20.2752 3.072-40.96 4.9664-61.952 5.5296L512 1011.2v-76.8c16.7424 0 33.2288-0.9728 49.408-2.8672l16.5376-2.2528 1.7408-0.256 10.5984-1.8944 5.376-1.0752 14.848-3.1744a418.9696 418.9696 0 0 0 51.0464-15.7184l2.2016-0.8704 5.5296-2.1504 4.4032-1.8432-5.3248 2.1504 6.5536-2.6624 3.84-1.6384 4.096-1.792 0.5632-0.256-0.3072 0.1024 14.848-6.8096a423.6288 423.6288 0 0 0 116.736-84.7872l8.704-9.1648 3.1232-3.4816 4.608-5.2736 1.7408-2.048 0.9216-1.0752 3.4304-4.096-1.536 1.9456 3.2768-4.0448 1.792-2.2016 0.2048-0.256 0.1536-0.2048 2.7648-3.4304 2.304-2.8672 4.5568-6.0928 5.1712-7.1168 3.328-4.6592 2.6624-3.8912 1.4336-2.1504 1.6896-2.4576 4.7104-7.2704c3.1744-5.12 6.2976-10.24 9.2672-15.5136l0.0512-0.0512 4.1984-7.68-1.4848 2.7648 1.536-2.7648 1.2288-2.2016c3.2256-6.0416 6.2976-12.1856 9.216-18.3808l5.0688-10.9056a420.0448 420.0448 0 0 0 35.584-171.4688l-0.3584-16.4864a427.3152 427.3152 0 0 0-3.584-39.936l-0.3072-1.9968-0.512-3.4816-1.3312-8.1408 0.7168 4.096-0.6656-4.096-0.9728-5.376-0.512-2.7136-1.4336-7.3728a419.6352 419.6352 0 0 0-2.2016-9.984l-0.8192-3.3792a420.352 420.352 0 0 0-64.4608-142.08l-8.96-12.3392-4.3008-5.5296-3.4304-4.3008 2.56 3.1744-2.5088-3.1744-1.9456-2.3552-3.072-3.7376zM510.3104 12.8l0.256 76.8A423.2192 423.2192 0 0 0 408.4224 102.4L389.632 27.904A500.0192 500.0192 0 0 1 510.3104 12.8z" p-id="5284" fill="#ffffff"></path></svg>