<?xml version="1.0" standalone="no"?><!DOCTYPE svg PUBLIC "-//W3C//DTD SVG 1.1//EN" "http://www.w3.org/Graphics/SVG/1.1/DTD/svg11.dtd"><svg t="1701134480788" class="icon" viewBox="0 0 1024 1024" version="1.1" xmlns="http://www.w3.org/2000/svg" p-id="7923" xmlns:xlink="http://www.w3.org/1999/xlink" width="24" height="24"><path d="M548.571429 512m-182.857143 0a182.857143 182.857143 0 1 0 365.714285 0 182.857143 182.857143 0 1 0-365.714285 0Z" fill="#ffffff" p-id="7924"></path><path d="M786.285714 182.857143m-109.714285 0a109.714286 109.714286 0 1 0 219.428571 0 109.714286 109.714286 0 1 0-219.428571 0Z" fill="#ffffff" p-id="7925"></path><path d="M749.714286 859.428571m-109.714286 0a109.714286 109.714286 0 1 0 219.428571 0 109.714286 109.714286 0 1 0-219.428571 0Z" fill="#ffffff" p-id="7926"></path><path d="M718.043429 215.844571l63.341714 36.571429-109.714286 190.025143-63.341714-36.571429zM428.324571 562.797714l36.571429 63.341715-190.025143 109.714285-36.571428-63.341714zM594.870857 658.944l63.341714-36.571429 109.714286 190.025143-63.341714 36.571429z" fill="#ffffff" p-id="7927"></path><path d="M219.428571 731.428571m-109.714285 0a109.714286 109.714286 0 1 0 219.428571 0 109.714286 109.714286 0 1 0-219.428571 0Z" fill="#ffffff" p-id="7928"></path></svg>